# xmcd
#
# Track frame offsets:
#	150
#	22838
#	33761
#	51778
#	64006
#	82127
#	95717
#	108031
#	118537
#	139613
#	152203
#	170191
#	186245
#	199740
#	212734
#	227967
#	245894
#	261672
#	273786
#	283690
#	295859
#	316460
#
# Disc length: 4474 seconds
#
# Revision: 4
# Processed by: cddbd v1.5.1PL2 Copyright (c) Steve Scherf et al.
# Submitted via: audiograbber 1.83.01
#
DISCID=4d117816
DTITLE=Jonny Cash - Jerry Lee lewis - John Prine - George Thorogood - Greatest 
DTITLE=Hits Country By Miro
DYEAR=2005
DGENRE=Country
TTITLE0=John Prine - Ain't Hurtin' Nobody
TTITLE1=Jerry Lee Lewis - Another Place Another Time
TTITLE2=Johnny Cash - Boy Named Sue
TTITLE3=John Prine - Daddy's Little Pumpkin
TTITLE4=Johnny Cash - Cadillac
TTITLE5=Jerry Lee Lewis - Crazy Arms
TTITLE6=George Thorogood - Hot Rod Lincoln
TTITLE7=Jerry Lee Lewis - I´M On Fire
TTITLE8=Johnny Cash, Emmylou Harris, C - Jesse James - One More Shot
TTITLE9=Jerry Lee Lewis - The Wild Side Of Life
TTITLE10=John Prine - Pissin In The Wind
TTITLE11=Johnny Cash - The Hobo Song
TTITLE12=Jerry Lee Lewis - You Win Again
TTITLE13=John Prine - Please Don't Bury Me
TTITLE14=Johnny Cash - Rockabilly Blues
TTITLE15=Jerry Lee Lewis - Sea Cruise
TTITLE16=Johnny Cash, John Prine, Bob Dylan - You Are My Sunshine
TTITLE17=Jerry Lee Lewis - Stagger Lee
TTITLE18=John Prine - They Outta Name A Drink After
TTITLE19=Jerry Lee Lewis - She Even Woke Me Up to Say Goodbye
TTITLE20=John Prine - Killing The Blues
TTITLE21=Jerry Lee Lewis and Van Morrison - Goodnight Irene
EXTD=
EXTT0=
EXTT1=
EXTT2=
EXTT3=
EXTT4=
EXTT5=
EXTT6=
EXTT7=
EXTT8=
EXTT9=
EXTT10=
EXTT11=
EXTT12=
EXTT13=
EXTT14=
EXTT15=
EXTT16=
EXTT17=
EXTT18=
EXTT19=
EXTT20=
EXTT21=
PLAYORDER=
